<svg xmlns="http://www.w3.org/2000/svg" xmlns:xlink="http://www.w3.org/1999/xlink" viewBox="0 0 380 280" width="380" height="280" role="img" aria-label="BPC-157 5 mg research label"><defs>
      <linearGradient id="np-band-u10" x1="0" y1="0" x2="1" y2="0">
        <stop offset="0" stop-color="#6a7482"/>
        <stop offset="0.5" stop-color="#e8ecf1"/>
        <stop offset="1" stop-color="#8d97a5"/>
      </linearGradient>
      <linearGradient id="np-core-sheen-u10" x1="0" y1="0" x2="0" y2="1">
        <stop offset="0" stop-color="#151920" stop-opacity="0.9"/>
        <stop offset="0.5" stop-color="#0a0b0e" stop-opacity="0"/>
        <stop offset="1" stop-color="#06070a" stop-opacity="0.8"/>
      </linearGradient></defs><rect x="0" y="0" width="380" height="280" fill="#0a0b0e"/><rect x="0" y="0" width="380" height="280" fill="url(#np-core-sheen-u10)"/><g transform="translate(0,0)"><rect x="6" y="6" width="368" height="268" rx="14" fill="none" stroke="#8a94a2" stroke-width="1.6"/><text x="190" y="32" font-family="'DM Sans',sans-serif" font-size="13" font-weight="700" fill="#f4f6f9" text-anchor="middle" letter-spacing="6">NOIR PEPTIDES</text><polygon points="184.5,50.5 195.5,50.5 201.0,60.0 195.5,69.5 184.5,69.5 179.0,60.0" fill="#14171d" stroke="#9aa4b2" stroke-width="1.6"/><text x="190" y="63.52" font-family="'DM Sans',sans-serif" font-size="8.14" font-weight="800" fill="#f4f6f9" text-anchor="middle" letter-spacing="0.5">NP</text><line x1="165" y1="60" x2="125" y2="60" stroke="#5a6472" stroke-width="1"/><rect x="158" y="57" width="6" height="6" transform="rotate(45 161 60)" fill="#5a6472"/><line x1="215" y1="60" x2="255" y2="60" stroke="#5a6472" stroke-width="1"/><rect x="216" y="57" width="6" height="6" transform="rotate(45 219 60)" fill="#5a6472"/><text x="190" y="120.96" font-family="'DM Sans',sans-serif" font-size="28" font-weight="700" fill="#f4f6f9" text-anchor="middle" letter-spacing="0.3">BPC-157</text><rect x="85" y="154" width="210" height="32" fill="url(#np-band-u10)"/><text x="190" y="177.5" font-family="'DM Sans',sans-serif" font-size="21" font-weight="700" fill="#0a0b0e" text-anchor="middle" letter-spacing="0.5">5 mg</text><text x="190" y="208" font-family="'DM Sans',sans-serif" font-size="8.5" font-weight="600" fill="#a7b0be" text-anchor="middle" letter-spacing="3">LYOPHILIZED RESEARCH MATERIAL</text><rect x="130.96" y="218" width="118.08" height="21" rx="10.5" fill="none" stroke="#5a6472" stroke-width="1"/><rect x="135.96" y="221.5" width="34" height="14" rx="7" fill="none" stroke="#5a6472" stroke-width="0.8"/><text x="152.96" y="231.6" font-family="'DM Sans',sans-serif" font-size="7.5" font-weight="700" fill="#a7b0be" text-anchor="middle" letter-spacing="1.2">CAT</text><text x="180.96" y="232.6" font-family="'IBM Plex Mono',monospace" font-size="10.5" font-weight="600" fill="#f4f6f9" text-anchor="start">BPC157-5</text><text x="190" y="268" font-family="'DM Sans',sans-serif" font-size="8" font-weight="700" fill="#f4f6f9" text-anchor="middle" letter-spacing="0.4">FOR RESEARCH USE ONLY — NOT FOR HUMAN OR VETERINARY USE</text><path d="M212.8 246 h32.831999999999994 l4.787999999999999 -7 l6.839999999999999 14 l4.787999999999999 -7 h21.887999999999998 l4.103999999999999 -4 l5.4719999999999995 8 l4.103999999999999 -4 h50.61599999999999" fill="none" stroke="#a7b0be" stroke-width="1" opacity="0.35"/></g></svg>