<svg xmlns="http://www.w3.org/2000/svg" viewBox="0 0 720 300" width="720" height="300" role="img" aria-label="BPC-157 5 mg research label"><defs>
      <pattern id="np-grid" width="24" height="24" patternUnits="userSpaceOnUse">
        <path d="M24 0H0V24" fill="none" stroke="#141c28" stroke-width="1"/>
      </pattern></defs><rect x="0" y="0" width="720" height="300" fill="#0a0f16"/><rect x="0" y="0" width="720" height="300" fill="url(#np-grid)" opacity="0.55"/><path d="M0 266 L0 266 L16 269 L32 272 L48 272 L64 270 L80 266 L96 263 L112 260 L128 260 L144 262 L160 265 L176 269 L192 271 L208 272 L224 270 L240 267 L256 264 L272 261 L288 260 L304 261 L320 264 L336 268 L352 271 L368 272 L384 271 L400 268 L416 264 L432 261 L448 260 L464 261 L480 264 L496 267 L512 270 L528 272 L544 271 L560 269 L576 265 L592 262 L608 260 L624 261 L640 263 L656 267 L672 270 L688 272 L704 272 L720 269" fill="none" stroke="#1f4a63" stroke-width="1.5" opacity="0.8"/><line x1="20" y1="22" x2="217" y2="22" stroke="#8a94a5" stroke-width="1.2"/><text x="20" y="34" font-family="'DM Sans',sans-serif" font-size="12.5" font-weight="600" fill="#eef2f7" text-anchor="start" letter-spacing="0.4">FOR RESEARCH USE ONLY.</text><text x="20" y="50.5" font-family="'DM Sans',sans-serif" font-size="12.5" font-weight="600" fill="#eef2f7" text-anchor="start" letter-spacing="0.4">NOT FOR HUMAN OR VETERINARY USE.</text><text x="20" y="67" font-family="'DM Sans',sans-serif" font-size="12.5" font-weight="600" fill="#eef2f7" text-anchor="start" letter-spacing="0.4">NOT FOR DIAGNOSTIC, THERAPEUTIC,</text><text x="20" y="83.5" font-family="'DM Sans',sans-serif" font-size="12.5" font-weight="600" fill="#eef2f7" text-anchor="start" letter-spacing="0.4">OR HOUSEHOLD USE.</text><line x1="20" y1="94" x2="217" y2="94" stroke="#8a94a5" stroke-width="1.2"/><text x="20" y="112" font-family="'DM Sans',sans-serif" font-size="10" font-weight="600" fill="#93a0b4" text-anchor="start" letter-spacing="1.6">STORAGE</text><text x="20" y="127" font-family="'DM Sans',sans-serif" font-size="10.5" font-weight="400" fill="#eef2f7" text-anchor="start">Storage: refer to accompanying batch documentation.</text><text x="20" y="150" font-family="'DM Sans',sans-serif" font-size="8.2" font-weight="400" fill="#93a0b4" text-anchor="start" opacity="0.9">After reconstitution: storage conditions must be determined by the validated research protocol.</text><text x="20" y="288" font-family="'IBM Plex Mono',monospace" font-size="10" font-weight="500" fill="#93a0b4" text-anchor="start" letter-spacing="0.8">noirpeptides.com</text><line x1="235" y1="16" x2="235" y2="284" stroke="#3f4b5e" stroke-width="1"/><text x="360" y="34" font-family="'Syne','DM Sans',sans-serif" font-size="17" font-weight="700" fill="#eef2f7" text-anchor="middle" letter-spacing="4">NOIR · PEPTIDES</text><line x1="294" y1="46" x2="426" y2="46" stroke="#3f4b5e" stroke-width="1"/><text x="360" y="112" font-family="'Syne','DM Sans',sans-serif" font-size="46" font-weight="800" fill="#eef2f7" text-anchor="middle" letter-spacing="1">BPC-157</text><text x="360" y="152" font-family="'DM Sans',sans-serif" font-size="30" font-weight="600" fill="#39c2ff" text-anchor="middle" letter-spacing="1.5">5 mg</text><text x="360" y="182" font-family="'DM Sans',sans-serif" font-size="10.5" font-weight="600" fill="#93a0b4" text-anchor="middle" letter-spacing="2.2">LYOPHILIZED RESEARCH MATERIAL</text><line x1="257" y1="234" x2="463" y2="234" stroke="#8a94a5" stroke-width="1.1"/><text x="360" y="248" font-family="'DM Sans',sans-serif" font-size="12" font-weight="700" fill="#eef2f7" text-anchor="middle" letter-spacing="1.2">FOR RESEARCH USE ONLY</text><text x="360" y="263.5" font-family="'DM Sans',sans-serif" font-size="10.5" font-weight="600" fill="#eef2f7" text-anchor="middle" letter-spacing="0.8">NOT FOR HUMAN OR VETERINARY USE</text><text x="360" y="288" font-family="'IBM Plex Mono',monospace" font-size="9.5" font-weight="500" fill="#93a0b4" text-anchor="middle" letter-spacing="1">CAT BPC157-5</text><rect x="346" y="190" width="28" height="3" rx="1.5" fill="#39c2ff"/><line x1="485" y1="16" x2="485" y2="284" stroke="#3f4b5e" stroke-width="1"/><text x="497" y="30" font-family="'DM Sans',sans-serif" font-size="9" font-weight="600" fill="#93a0b4" text-anchor="start" letter-spacing="1.6">LOT</text><text x="497" y="46" font-family="'IBM Plex Mono',monospace" font-size="12.5" font-weight="600" fill="#eef2f7" text-anchor="start">NP-BPC157-2607-001</text><text x="497" y="68" font-family="'IBM Plex Mono',monospace" font-size="12" font-weight="600" fill="#eef2f7" text-anchor="start">EXP 2028-07</text><rect x="493" y="156" width="104" height="104" rx="4" fill="#ffffff"/><svg x="497" y="160" width="96" height="96" viewBox="0 0 33 33"><path fill="#ffffff" d="M0 0h33v33H0z"/><path stroke="#0a0f16" d="M2 2.5h7m2 0h4m1 0h2m2 0h2m2 0h7M2 3.5h1m5 0h1m1 0h1m1 0h2m1 0h1m3 0h3m2 0h1m5 0h1M2 4.5h1m1 0h3m1 0h1m3 0h1m5 0h1m5 0h1m1 0h3m1 0h1M2 5.5h1m1 0h3m1 0h1m2 0h5m4 0h2m2 0h1m1 0h3m1 0h1M2 6.5h1m1 0h3m1 0h1m1 0h2m1 0h2m1 0h2m3 0h1m2 0h1m1 0h3m1 0h1M2 7.5h1m5 0h1m3 0h1m1 0h2m2 0h1m2 0h2m1 0h1m5 0h1M2 8.5h7m1 0h1m1 0h1m1 0h1m1 0h1m1 0h1m1 0h1m1 0h1m1 0h7M12 9.5h2m2 0h2m1 0h3M2 10.5h1m1 0h1m1 0h1m1 0h1m2 0h3m5 0h4m3 0h1m2 0h1M11 11.5h1m1 0h1m1 0h1m1 0h1m4 0h3m2 0h1m2 0h1M2 12.5h2m1 0h2m1 0h1m3 0h1m1 0h1m1 0h1m2 0h1m2 0h2m4 0h3M3 13.5h1m1 0h3m1 0h2m1 0h4m3 0h1m1 0h4m1 0h1m2 0h1M5 14.5h1m1 0h4m3 0h1m1 0h2m1 0h1m3 0h2m2 0h1m1 0h2M4 15.5h1m1 0h2m5 0h1m1 0h1m3 0h1m2 0h4m1 0h1m2 0h1M2 16.5h3m1 0h1m1 0h2m1 0h1m1 0h1m2 0h1m2 0h2m1 0h2m1 0h1m1 0h1m1 0h2M2 17.5h2m1 0h3m4 0h2m1 0h1m3 0h3m2 0h1m2 0h1m1 0h1M2 18.5h3m1 0h1m1 0h5m1 0h1m1 0h4m3 0h3m1 0h1m1 0h2M3 19.5h2m1 0h1m4 0h2m1 0h2m6 0h3m2 0h2m1 0h1M2 20.5h1m2 0h2m1 0h2m4 0h1m1 0h2m1 0h1m5 0h1m3 0h2M3 21.5h1m2 0h2m3 0h1m1 0h1m1 0h1m2 0h5m4 0h1m1 0h1M2 22.5h1m2 0h1m2 0h2m6 0h2m1 0h1m2 0h5M10 23.5h1m2 0h1m1 0h1m5 0h2m3 0h1m1 0h3M2 24.5h7m2 0h1m1 0h2m1 0h1m1 0h1m2 0h2m1 0h1m1 0h2m1 0h2M2 25.5h1m5 0h1m2 0h2m2 0h1m1 0h1m1 0h2m1 0h1m3 0h2m1 0h2M2 26.5h1m1 0h3m1 0h1m1 0h1m1 0h1m3 0h1m1 0h3m1 0h5m2 0h1M2 27.5h1m1 0h3m1 0h1m3 0h1m1 0h2m5 0h1m4 0h1m1 0h1M2 28.5h1m1 0h3m1 0h1m1 0h1m1 0h2m1 0h2m1 0h2m2 0h2m1 0h3m2 0h1M2 29.5h1m5 0h1m5 0h2m2 0h3m1 0h2m2 0h1m2 0h1M2 30.5h7m1 0h2m1 0h4m2 0h1m1 0h2m2 0h3m1 0h2"/></svg><text x="545" y="272" font-family="'DM Sans',sans-serif" font-size="8.5" font-weight="600" fill="#93a0b4" text-anchor="middle" letter-spacing="1.4">SCAN TO VERIFY</text><text x="545" y="286" font-family="'IBM Plex Mono',monospace" font-size="8.5" font-weight="400" fill="#93a0b4" text-anchor="middle" letter-spacing="0.6">SAMPLE0000000</text><rect x="612" y="22" width="54" height="240" rx="3" fill="#ffffff"/><g transform="translate(618,242.8) rotate(-90) scale(1.6390243902439023,4.2)"><g shape-rendering="crispEdges"><rect x="0" y="0" width="2" height="10" fill="#0a0f16"/><rect x="3" y="0" width="1" height="10" fill="#0a0f16"/><rect x="6" y="0" width="1" height="10" fill="#0a0f16"/><rect x="11" y="0" width="1" height="10" fill="#0a0f16"/><rect x="15" y="0" width="1" height="10" fill="#0a0f16"/><rect x="17" y="0" width="2" height="10" fill="#0a0f16"/><rect x="22" y="0" width="3" height="10" fill="#0a0f16"/><rect x="26" y="0" width="3" height="10" fill="#0a0f16"/><rect x="30" y="0" width="2" height="10" fill="#0a0f16"/><rect x="33" y="0" width="1" height="10" fill="#0a0f16"/><rect x="37" y="0" width="1" height="10" fill="#0a0f16"/><rect x="41" y="0" width="2" height="10" fill="#0a0f16"/><rect x="44" y="0" width="1" height="10" fill="#0a0f16"/><rect x="47" y="0" width="3" height="10" fill="#0a0f16"/><rect x="52" y="0" width="2" height="10" fill="#0a0f16"/><rect x="55" y="0" width="2" height="10" fill="#0a0f16"/><rect x="58" y="0" width="3" height="10" fill="#0a0f16"/><rect x="63" y="0" width="1" height="10" fill="#0a0f16"/><rect x="66" y="0" width="3" height="10" fill="#0a0f16"/><rect x="70" y="0" width="2" height="10" fill="#0a0f16"/><rect x="73" y="0" width="3" height="10" fill="#0a0f16"/><rect x="77" y="0" width="1" height="10" fill="#0a0f16"/><rect x="80" y="0" width="2" height="10" fill="#0a0f16"/><rect x="83" y="0" width="3" height="10" fill="#0a0f16"/><rect x="88" y="0" width="2" height="10" fill="#0a0f16"/><rect x="91" y="0" width="3" height="10" fill="#0a0f16"/><rect x="96" y="0" width="1" height="10" fill="#0a0f16"/><rect x="99" y="0" width="1" height="10" fill="#0a0f16"/><rect x="102" y="0" width="4" height="10" fill="#0a0f16"/><rect x="108" y="0" width="1" height="10" fill="#0a0f16"/><rect x="110" y="0" width="2" height="10" fill="#0a0f16"/><rect x="115" y="0" width="3" height="10" fill="#0a0f16"/><rect x="119" y="0" width="1" height="10" fill="#0a0f16"/><rect x="121" y="0" width="2" height="10" fill="#0a0f16"/></g></g><text x="606" y="256" font-family="'IBM Plex Mono',monospace" font-size="8.5" font-weight="500" fill="#93a0b4" text-anchor="start" transform="rotate(-90 606 256)">BPC157-5</text></svg>