<svg xmlns="http://www.w3.org/2000/svg" xmlns:xlink="http://www.w3.org/1999/xlink" viewBox="0 0 720 300" width="720" height="300" role="img" aria-label="Selank 5 mg research label"><defs>
      <linearGradient id="np-core-sheen-u8" x1="0" y1="0" x2="0" y2="1">
        <stop offset="0" stop-color="#161b24" stop-opacity="0.9"/>
        <stop offset="0.5" stop-color="#0b0d12" stop-opacity="0"/>
        <stop offset="1" stop-color="#060709" stop-opacity="0.8"/>
      </linearGradient></defs><rect x="0" y="0" width="720" height="300" fill="#0b0d12"/><rect x="0" y="0" width="720" height="300" fill="url(#np-core-sheen-u8)"/><rect x="6" y="6" width="708" height="288" fill="none" stroke="#39414e" stroke-width="1" opacity="0.85"/><g transform="translate(0,0)"><line x1="18" y1="29" x2="212" y2="29" stroke="#7d8798" stroke-width="1.2"/><text x="18" y="42" font-family="'DM Sans',sans-serif" font-size="11.5" font-weight="700" fill="#f2f4f8" text-anchor="start" letter-spacing="0.3">FOR RESEARCH USE ONLY.</text><text x="18" y="58" font-family="'DM Sans',sans-serif" font-size="11.5" font-weight="700" fill="#f2f4f8" text-anchor="start" letter-spacing="0.3">NOT FOR HUMAN OR VETERINARY USE.</text><text x="18" y="74" font-family="'DM Sans',sans-serif" font-size="11.5" font-weight="700" fill="#f2f4f8" text-anchor="start" letter-spacing="0.3">NOT FOR DIAGNOSTIC, THERAPEUTIC,</text><text x="18" y="90" font-family="'DM Sans',sans-serif" font-size="11.5" font-weight="700" fill="#f2f4f8" text-anchor="start" letter-spacing="0.3">OR HOUSEHOLD USE.</text><line x1="18" y1="99" x2="212" y2="99" stroke="#7d8798" stroke-width="1.2"/><text x="18" y="125" font-family="'DM Sans',sans-serif" font-size="8.5" font-weight="700" fill="#9aa4b5" text-anchor="start" letter-spacing="2">STORAGE</text><text x="18" y="140" font-family="'DM Sans',sans-serif" font-size="10" font-weight="400" fill="#f2f4f8" text-anchor="start">Refer to accompanying batch</text><text x="18" y="153.5" font-family="'DM Sans',sans-serif" font-size="10" font-weight="400" fill="#f2f4f8" text-anchor="start">documentation.</text><text x="18" y="246" font-family="'DM Sans',sans-serif" font-size="7.6" font-weight="400" fill="#9aa4b5" text-anchor="start" opacity="0.9">After reconstitution: storage conditions must</text><text x="18" y="256" font-family="'DM Sans',sans-serif" font-size="7.6" font-weight="400" fill="#9aa4b5" text-anchor="start" opacity="0.9">be determined by the validated research</text><text x="18" y="266" font-family="'DM Sans',sans-serif" font-size="7.6" font-weight="400" fill="#9aa4b5" text-anchor="start" opacity="0.9">protocol.</text><line x1="18" y1="274" x2="212" y2="274" stroke="#4d5665" stroke-width="0.8"/><text x="18" y="289" font-family="'IBM Plex Mono',monospace" font-size="9.5" font-weight="500" fill="#9aa4b5" text-anchor="start" letter-spacing="0.8">noirpeptides.com</text><line x1="224" y1="18" x2="224" y2="282" stroke="#4d5665" stroke-width="1"/><path id="np-arc-u8" d="M 257 44 Q 351 24 445 44" fill="none"/><text font-family="'Syne','DM Sans',sans-serif" font-size="13.5" font-weight="700" fill="#f2f4f8" letter-spacing="3.2"><textPath href="#np-arc-u8" xlink:href="#np-arc-u8" startOffset="50%" text-anchor="middle">NOIR PEPTIDES</textPath></text><polygon points="344.0,59.9 358.0,59.9 365.0,72.0 358.0,84.1 344.0,84.1 337.0,72.0" fill="none" stroke="#8a94a5" stroke-width="1.6"/><text x="351" y="76.48" font-family="'Syne','DM Sans',sans-serif" font-size="10.08" font-weight="800" fill="#f2f4f8" text-anchor="middle" letter-spacing="0.5">NP</text><text x="351" y="131.68" font-family="'DM Sans',sans-serif" font-size="38" font-weight="700" fill="#f2f4f8" text-anchor="middle" letter-spacing="0.4">Selank</text><text x="351" y="165.68" font-family="'DM Sans',sans-serif" font-size="25" font-weight="600" fill="#c8cfd9" text-anchor="middle" letter-spacing="1">5 mg</text><text x="351" y="188.68" font-family="'DM Sans',sans-serif" font-size="9" font-weight="600" fill="#9aa4b5" text-anchor="middle" letter-spacing="2">LYOPHILIZED RESEARCH MATERIAL</text><line x1="248" y1="232" x2="454" y2="232" stroke="#7d8798" stroke-width="1.1"/><text x="351" y="251" font-family="'DM Sans',sans-serif" font-size="11.5" font-weight="700" fill="#f2f4f8" text-anchor="middle" letter-spacing="1.2">FOR RESEARCH USE ONLY</text><text x="351" y="267" font-family="'DM Sans',sans-serif" font-size="9.5" font-weight="600" fill="#f2f4f8" text-anchor="middle" letter-spacing="0.6">NOT FOR HUMAN OR VETERINARY USE</text><text x="351" y="287" font-family="'IBM Plex Mono',monospace" font-size="9" font-weight="500" fill="#9aa4b5" text-anchor="middle" letter-spacing="1.2">CAT SELANK-5</text><line x1="478" y1="18" x2="478" y2="282" stroke="#4d5665" stroke-width="1"/><text x="490" y="30" font-family="'DM Sans',sans-serif" font-size="8" font-weight="700" fill="#9aa4b5" text-anchor="start" letter-spacing="2">LOT</text><line x1="490" y1="49" x2="594" y2="49" stroke="#4d5665" stroke-width="1"/><text x="490" y="74" font-family="'DM Sans',sans-serif" font-size="8" font-weight="700" fill="#9aa4b5" text-anchor="start" letter-spacing="2">EXP</text><line x1="490" y1="93" x2="594" y2="93" stroke="#4d5665" stroke-width="1"/><rect x="485" y="151" width="102" height="102" rx="4" fill="#ffffff" stroke="#4d5665" stroke-width="0.8"/><svg x="490" y="156" width="92" height="92" viewBox="0 0 33 33"><path fill="#ffffff" d="M0 0h33v33H0z"/><path stroke="#0b0d12" d="M2 2.5h7m2 0h4m1 0h2m2 0h2m2 0h7M2 3.5h1m5 0h1m1 0h1m1 0h2m1 0h1m3 0h3m2 0h1m5 0h1M2 4.5h1m1 0h3m1 0h1m3 0h1m5 0h1m5 0h1m1 0h3m1 0h1M2 5.5h1m1 0h3m1 0h1m2 0h5m4 0h2m2 0h1m1 0h3m1 0h1M2 6.5h1m1 0h3m1 0h1m1 0h2m1 0h2m1 0h2m3 0h1m2 0h1m1 0h3m1 0h1M2 7.5h1m5 0h1m3 0h1m1 0h2m2 0h1m2 0h2m1 0h1m5 0h1M2 8.5h7m1 0h1m1 0h1m1 0h1m1 0h1m1 0h1m1 0h1m1 0h1m1 0h7M12 9.5h2m2 0h2m1 0h3M2 10.5h1m1 0h1m1 0h1m1 0h1m2 0h3m5 0h4m3 0h1m2 0h1M11 11.5h1m1 0h1m1 0h1m1 0h1m4 0h3m2 0h1m2 0h1M2 12.5h2m1 0h2m1 0h1m3 0h1m1 0h1m1 0h1m2 0h1m2 0h2m4 0h3M3 13.5h1m1 0h3m1 0h2m1 0h4m3 0h1m1 0h4m1 0h1m2 0h1M5 14.5h1m1 0h4m3 0h1m1 0h2m1 0h1m3 0h2m2 0h1m1 0h2M4 15.5h1m1 0h2m5 0h1m1 0h1m3 0h1m2 0h4m1 0h1m2 0h1M2 16.5h3m1 0h1m1 0h2m1 0h1m1 0h1m2 0h1m2 0h2m1 0h2m1 0h1m1 0h1m1 0h2M2 17.5h2m1 0h3m4 0h2m1 0h1m3 0h3m2 0h1m2 0h1m1 0h1M2 18.5h3m1 0h1m1 0h5m1 0h1m1 0h4m3 0h3m1 0h1m1 0h2M3 19.5h2m1 0h1m4 0h2m1 0h2m6 0h3m2 0h2m1 0h1M2 20.5h1m2 0h2m1 0h2m4 0h1m1 0h2m1 0h1m5 0h1m3 0h2M3 21.5h1m2 0h2m3 0h1m1 0h1m1 0h1m2 0h5m4 0h1m1 0h1M2 22.5h1m2 0h1m2 0h2m6 0h2m1 0h1m2 0h5M10 23.5h1m2 0h1m1 0h1m5 0h2m3 0h1m1 0h3M2 24.5h7m2 0h1m1 0h2m1 0h1m1 0h1m2 0h2m1 0h1m1 0h2m1 0h2M2 25.5h1m5 0h1m2 0h2m2 0h1m1 0h1m1 0h2m1 0h1m3 0h2m1 0h2M2 26.5h1m1 0h3m1 0h1m1 0h1m1 0h1m3 0h1m1 0h3m1 0h5m2 0h1M2 27.5h1m1 0h3m1 0h1m3 0h1m1 0h2m5 0h1m4 0h1m1 0h1M2 28.5h1m1 0h3m1 0h1m1 0h1m1 0h2m1 0h2m1 0h2m2 0h2m1 0h3m2 0h1M2 29.5h1m5 0h1m5 0h2m2 0h3m1 0h2m2 0h1m2 0h1M2 30.5h7m1 0h2m1 0h4m2 0h1m1 0h2m2 0h3m1 0h2"/></svg><text x="536" y="270" font-family="'DM Sans',sans-serif" font-size="8" font-weight="700" fill="#9aa4b5" text-anchor="middle" letter-spacing="1.6">SCAN TO VERIFY</text><text x="536" y="284" font-family="'IBM Plex Mono',monospace" font-size="8" font-weight="400" fill="#9aa4b5" text-anchor="middle" letter-spacing="0.6">SAMPLE0000000</text><rect x="624" y="24" width="50" height="252" rx="3" fill="#ffffff" stroke="#4d5665" stroke-width="0.8"/><g transform="translate(630,255.84) rotate(-90) scale(1.7209756097560975,3.8)"><g shape-rendering="crispEdges"><rect x="0" y="0" width="2" height="10" fill="#0b0d12"/><rect x="3" y="0" width="1" height="10" fill="#0b0d12"/><rect x="6" y="0" width="1" height="10" fill="#0b0d12"/><rect x="11" y="0" width="2" height="10" fill="#0b0d12"/><rect x="14" y="0" width="3" height="10" fill="#0b0d12"/><rect x="18" y="0" width="1" height="10" fill="#0b0d12"/><rect x="22" y="0" width="1" height="10" fill="#0b0d12"/><rect x="26" y="0" width="2" height="10" fill="#0b0d12"/><rect x="29" y="0" width="1" height="10" fill="#0b0d12"/><rect x="33" y="0" width="1" height="10" fill="#0b0d12"/><rect x="37" y="0" width="2" height="10" fill="#0b0d12"/><rect x="40" y="0" width="3" height="10" fill="#0b0d12"/><rect x="44" y="0" width="1" height="10" fill="#0b0d12"/><rect x="46" y="0" width="1" height="10" fill="#0b0d12"/><rect x="50" y="0" width="2" height="10" fill="#0b0d12"/><rect x="55" y="0" width="1" height="10" fill="#0b0d12"/><rect x="57" y="0" width="3" height="10" fill="#0b0d12"/><rect x="63" y="0" width="2" height="10" fill="#0b0d12"/><rect x="66" y="0" width="1" height="10" fill="#0b0d12"/><rect x="68" y="0" width="2" height="10" fill="#0b0d12"/><rect x="73" y="0" width="3" height="10" fill="#0b0d12"/><rect x="77" y="0" width="1" height="10" fill="#0b0d12"/><rect x="80" y="0" width="2" height="10" fill="#0b0d12"/><rect x="83" y="0" width="3" height="10" fill="#0b0d12"/><rect x="88" y="0" width="2" height="10" fill="#0b0d12"/><rect x="91" y="0" width="3" height="10" fill="#0b0d12"/><rect x="96" y="0" width="1" height="10" fill="#0b0d12"/><rect x="99" y="0" width="1" height="10" fill="#0b0d12"/><rect x="102" y="0" width="1" height="10" fill="#0b0d12"/><rect x="106" y="0" width="2" height="10" fill="#0b0d12"/><rect x="110" y="0" width="2" height="10" fill="#0b0d12"/><rect x="115" y="0" width="3" height="10" fill="#0b0d12"/><rect x="119" y="0" width="1" height="10" fill="#0b0d12"/><rect x="121" y="0" width="2" height="10" fill="#0b0d12"/></g></g><text x="617" y="248" font-family="'IBM Plex Mono',monospace" font-size="8" font-weight="500" fill="#9aa4b5" text-anchor="start" transform="rotate(-90 617 248)">SELANK-5</text></g></svg>